<?xml version="1.0"?>
<svg width="800" height="800" xmlns="http://www.w3.org/2000/svg" xmlns:svg="http://www.w3.org/2000/svg" xmlns:xlink="http://www.w3.org/1999/xlink">
 <defs>
  <clipPath id="clip0_0_1">
   <rect fill="white" height="237" id="svg_1" transform="translate(282 222)" width="237"/>
  </clipPath>
  <symbol height="800" id="svg_74" width="800" xmlns="http://www.w3.org/2000/svg" xmlns:svg="http://www.w3.org/2000/svg" xmlns:xlink="http://www.w3.org/1999/xlink">
   <defs>
    <clipPath id="svg_72">
     <rect fill="none" height="237" id="svg_73" transform="translate(282 222)" width="237"/>
    </clipPath>
    <symbol height="800" id="svg_53" viewBox="0 0 800 800" width="800" xmlns="http://www.w3.org/2000/svg">
     <rect fill="none" height="800" id="svg_71" width="800"/>
     <path d="m399.88,557.77c120.34,0 217.89,-97.55 217.89,-217.89c0,-120.33 -97.55,-217.88 -217.89,-217.88c-120.33,0 -217.88,97.55 -217.88,217.88c0,120.34 97.55,217.89 217.88,217.89z" fill="#FFB54E" id="svg_70" stroke="black" stroke-width="1.56"/>
     <path d="m400.37,533.12c102.54,0 185.67,-83.13 185.67,-185.68c0,-102.55 -83.13,-185.68 -185.67,-185.68c-102.55,0 -185.68,83.13 -185.68,185.68c0,102.55 83.13,185.68 185.68,185.68z" fill="#FF9A1B" id="svg_69" stroke="black" stroke-width="1.56"/>
     <path d="m400,509.37c89.43,0 161.93,-72.5 161.93,-161.93c0,-89.43 -72.5,-161.93 -161.93,-161.93c-89.43,0 -161.93,72.5 -161.93,161.93c0,89.43 72.5,161.93 161.93,161.93z" fill="#FFCE8B" id="svg_68" stroke="black" stroke-width="1.56"/>
     <g clip-path="url(#svg_54)" id="svg_56">
      <path d="m515.53,340.39c-3.04,-28.86 -19.07,-52.21 -40.35,-68.11c-21.51,-16.09 -48.42,-24.92 -73.91,-24.93c-26.46,0 -42.78,3.39 -53.58,8.07c-10.68,4.56 -15.83,10.86 -18.66,14.58c-11.57,1.9 -23.09,8.67 -32.24,18.29c-9.71,10.28 -16.77,24.02 -16.79,39.13c0,16.53 3.8,30.49 11.39,40.88c6.73,9.26 16.54,15.35 28.22,17.56c0.77,4.47 2.61,9.45 6.41,14.01c3.94,4.76 9.32,8.22 15.68,10.42c6.37,2.21 13.75,3.23 22.14,3.24l35.2,0c0.87,2.23 1.92,4.36 3.38,6.24c3.58,4.63 8.74,7.87 14.92,9.91c6.21,2.05 13.53,2.97 22.03,2.97c4.18,0 8.13,-0.19 11.49,-0.35l0.02,0c2.4,-0.13 4.47,-0.22 5.95,-0.22c4.43,0 8.68,-1.09 12.33,-3.23c3.66,-2.12 6.69,-5.27 8.76,-9.15c1.04,-1.96 1.73,-4.02 2.25,-6.09c7.84,-1.48 14.34,-4.37 19.41,-8.05c5.93,-4.31 10.01,-9.51 12.79,-14.22c5.41,-9.25 7.62,-19.5 7.63,-29.02c-0.01,-8.11 -1.63,-15.67 -4.47,-21.93zm-12.47,45.39c-2.18,3.7 -5.32,7.67 -9.8,10.92c-4.5,3.25 -10.34,5.86 -18.31,6.77l-4.46,0.51l-0.33,4.52c-0.14,1.95 -0.74,4.14 -1.76,6.03c-1.17,2.16 -2.73,3.76 -4.64,4.88c-1.93,1.11 -4.23,1.76 -6.93,1.76c-1.91,0 -4.09,0.11 -6.5,0.23l0.9,-0.04l-0.9,0.04c-3.34,0.17 -7.11,0.35 -10.96,0.35c-10.28,0.02 -17.95,-1.58 -22.85,-4.19c-2.46,-1.29 -4.24,-2.79 -5.57,-4.49c-1.31,-1.72 -2.21,-3.66 -2.71,-6.09l-0.89,-4.36l-43.51,0c-7.5,0 -13.73,-0.94 -18.62,-2.64c-4.89,-1.71 -8.41,-4.1 -10.91,-7.11c-3.26,-3.93 -4.23,-8.19 -4.35,-11.93l-0.15,-4.76l-4.7,-0.5c-11.02,-1.22 -19.16,-5.92 -25.02,-13.85c-5.82,-7.95 -9.28,-19.52 -9.28,-34.41c-0.02,-11.54 5.57,-22.91 13.81,-31.61c8.18,-8.72 18.96,-14.5 27.85,-15.34l2.04,-0.22l1.39,-1.51c0.62,-0.69 1.11,-1.35 1.54,-1.89c2.81,-3.54 5.68,-7.47 14.53,-11.41c8.84,-3.86 23.74,-7.2 49.3,-7.19c23.01,-0.02 47.94,8.14 67.47,22.79c19.56,14.67 33.65,35.52 36.14,61.24l0.09,0.99l0.44,0.9c2.27,4.62 3.79,11.15 3.78,18.15c0,7.82 -1.85,16.18 -6.13,23.46z" fill="black" id="svg_67"/>
      <path d="m447.36,288.2l11.28,0c2.42,0 4.4,-2 4.4,-4.52c0,-2.47 -1.98,-4.46 -4.4,-4.46l-11.28,0c-2.49,0 -4.48,2 -4.48,4.46c0,2.52 1.99,4.52 4.48,4.52z" fill="black" id="svg_66"/>
      <path d="m394.47,331.17c0,2.49 2,4.52 4.46,4.52c2.42,0 4.44,-2.03 4.44,-4.52l0,-24.5c0,-1.13 0.33,-1.4 0.41,-1.5c1.42,-1.4 6.7,-1.4 10.39,-1.4l0.14,0.05l29.17,0c0.57,0 1.16,-0.05 1.83,-0.05c2.35,-0.11 5.25,-0.21 6.47,0.98c0.77,0.76 1.22,2.45 1.22,4.72l0,15.03l0,0.67c-0.1,3.09 -0.11,8.3 3.34,11.84c1.35,1.4 3.85,3.05 7.92,3.05l22.92,0c2.41,0 4.38,-2 4.38,-4.51c0,-2.46 -1.97,-4.5 -4.38,-4.5l-22.92,0l-1.6,-0.38c-0.81,-0.85 -0.76,-3.94 -0.76,-5.42l0,-15.78c0,-4.87 -1.35,-8.64 -3.93,-11.16c-3.98,-3.84 -9.39,-3.68 -12.96,-3.53c-0.58,0 -1.07,0.02 -1.53,0.02l-14.7,0c0.17,-1.24 0.17,-2.49 0.13,-3.61l0,-13.05c0,-2.45 -2,-4.48 -4.43,-4.48c-2.48,0 -4.42,2.03 -4.42,4.48l0,13.12c0,1.05 0,2.71 -0.22,3.14c0,0 -0.61,0.4 -2.96,0.4c-0.68,0 -1.4,0 -2.19,0c-6.06,-0.08 -13.03,-0.1 -17.17,4c-1.35,1.38 -3.05,3.88 -3.05,7.87l0,24.5l0,0z" fill="black" id="svg_65"/>
      <path d="m380.16,294.49c2.49,0 4.48,-2.06 4.48,-4.51l0,-6.42l7.47,0c2.41,0 4.41,-2.02 4.41,-4.52c0,-2.44 -2,-4.48 -4.41,-4.48l-7.47,0l0,-4.95c0,-2.48 -1.99,-4.5 -4.48,-4.5c-2.41,0 -4.41,2.02 -4.41,4.5l0,20.37c0,2.45 2,4.51 4.41,4.51z" fill="black" id="svg_64"/>
      <path d="m331.96,301.09l18.5,0c3.02,-0.11 5.89,-0.11 7.24,1.33c1.2,1.18 1.86,3.83 1.86,7.64l0,17.51c0,2.48 1.98,4.52 4.49,4.52c2.42,0 4.44,-2.04 4.44,-4.52l0,-3.72l6.97,0c2.46,0 4.43,-2.02 4.43,-4.5c0,-2.48 -1.97,-4.53 -4.43,-4.53l-6.97,0l0,-4.76c0,-6.46 -1.48,-11.04 -4.52,-14.05c-3.95,-4 -9.28,-3.96 -13.53,-3.92l-18.48,0c-2.53,0 -4.46,2.04 -4.46,4.48c0,2.49 1.93,4.52 4.46,4.52z" fill="black" id="svg_63"/>
      <path d="m343.7,327.29c0,-2.49 -2.05,-4.52 -4.45,-4.52l-31.22,0c-2.47,0 -4.48,2.03 -4.48,4.52c0,2.47 2.01,4.5 4.48,4.5l11.32,0l0,8.19c0,2.5 1.96,4.5 4.4,4.5c2.53,0 4.49,-2 4.49,-4.5l0,-8.19l11.01,0c2.4,0 4.45,-2.03 4.45,-4.5z" fill="black" id="svg_62"/>
      <path d="m371.21,356.74c0.78,0 1.52,0 2.18,0l35.95,0c8.2,0 14.43,-2.19 18.56,-6.56c6.36,-6.79 5.92,-16.85 5.59,-23.49c-0.06,-1.27 -0.11,-2.46 -0.11,-3.46c0,-2.5 -2,-4.5 -4.51,-4.5c-2.43,0 -4.39,2 -4.39,4.5c0,1.14 0.06,2.44 0.12,3.83c0.27,5.8 0.58,12.92 -3.22,16.96c-2.31,2.48 -6.41,3.73 -12.04,3.73l-35.95,0c-0.63,0 -1.27,0 -2.04,0c-7.1,-0.11 -19.03,-0.3 -26.6,7.24c-4.25,4.23 -6.42,10.18 -6.42,17.67c0,2.44 1.96,4.5 4.45,4.5c2.43,0 4.46,-2.06 4.46,-4.5c0,-5.09 1.21,-8.78 3.77,-11.3c4.9,-4.85 14.12,-4.71 20.2,-4.62z" fill="black" id="svg_61"/>
      <path d="m431.86,376.21c0,-2.44 -1.96,-4.49 -4.44,-4.49l-56.43,0c-2.43,0 -4.47,2.05 -4.47,4.49c0,2.49 2.04,4.5 4.47,4.5l17.25,0l0,8.98c0,2.51 1.98,4.49 4.44,4.49c2.46,0 4.45,-1.98 4.45,-4.49l0,-8.98l30.29,0c2.48,0 4.44,-2.01 4.44,-4.5z" fill="black" id="svg_60"/>
      <path d="m457.13,393.91l-2.09,0l0,-8.36c0,-2.54 -1.96,-4.5 -4.44,-4.5c-2.47,0 -4.46,1.96 -4.46,4.5l0,8.36l-15.44,0c-2.45,0 -4.45,2.01 -4.45,4.51c0,2.47 2,4.46 4.45,4.46l26.43,0c2.45,0 4.45,-1.99 4.45,-4.46c0,-2.5 -2,-4.51 -4.45,-4.51z" fill="black" id="svg_59"/>
      <path d="m477.62,371.72l0,-7.34l1.6,0c2.51,0 4.5,-1.97 4.5,-4.45c0,-2.48 -1.99,-4.52 -4.5,-4.52l-31.16,0c-2.44,0 -4.45,2.04 -4.45,4.52c0,2.48 2.01,4.45 4.45,4.45l20.62,0l0,7.34c0,2.53 2.02,4.49 4.48,4.49c2.46,0 4.46,-1.96 4.46,-4.49z" fill="black" id="svg_58"/>
      <path d="m491.56,383.44l-11.27,0c-2.48,0 -4.47,1.98 -4.47,4.48c0,2.49 1.99,4.45 4.47,4.45l11.27,0c2.5,0 4.51,-1.96 4.51,-4.45c0,-2.5 -2.01,-4.48 -4.51,-4.48z" fill="black" id="svg_57"/>
     </g>
     <defs>
      <clipPath id="svg_54">
       <rect fill="white" height="242" id="svg_55" transform="translate(280 219)" width="240"/>
      </clipPath>
     </defs>
    </symbol>
   </defs>
   <g class="layer">
    <title>Layer 1</title>
    <use id="svg_52" transform="matrix(0.333333 0 0 0.333333 0 0)" x="0" xlink:href="#svg_53" y="0"/>
   </g>
  </symbol>
 </defs>
 <g class="layer">
  <title>Layer 1</title>
  <use id="svg_75" transform="matrix(2.96989 0 0 2.97784 5.45922 3.90001)" x="0" xlink:href="#svg_74" y="0"/>
 </g>
</svg>