<?xml version="1.0"?>
<svg width="800" height="800" xmlns="http://www.w3.org/2000/svg" xmlns:svg="http://www.w3.org/2000/svg">
 <defs>
  <clipPath id="clip0_0_1">
   <rect fill="none" height="237" id="svg_1" transform="translate(282 222)" width="237"/>
  </clipPath>
 </defs>
 <g class="layer">
  <title>Layer 1</title>
  <rect fill="none" height="800" id="svg_2" width="800"/>
  <path d="m399.88,557.77c120.34,0 217.89,-97.55 217.89,-217.89c0,-120.33 -97.55,-217.88 -217.89,-217.88c-120.33,0 -217.88,97.55 -217.88,217.88c0,120.34 97.55,217.89 217.88,217.89z" fill="#FFB54E" id="svg_3" stroke="black" stroke-width="1.56"/>
  <path d="m400.37,533.12c102.54,0 185.67,-83.13 185.67,-185.68c0,-102.55 -83.13,-185.68 -185.67,-185.68c-102.55,0 -185.68,83.13 -185.68,185.68c0,102.55 83.13,185.68 185.68,185.68z" fill="#FF9A1B" id="svg_4" stroke="black" stroke-width="1.56"/>
  <path d="m400,509.37c89.43,0 161.93,-72.5 161.93,-161.93c0,-89.43 -72.5,-161.93 -161.93,-161.93c-89.43,0 -161.93,72.5 -161.93,161.93c0,89.43 72.5,161.93 161.93,161.93z" fill="#FFCE8B" id="svg_5" stroke="black" stroke-width="1.56"/>
  <g clip-path="url(#clip0_0_1)" id="svg_6">
   <path d="m509.22,363.09l-14.07,4.74l-12.22,-67.1l31.4,-12.59c0.91,-0.36 1.73,-0.9 2.43,-1.58c0.7,-0.67 1.26,-1.48 1.64,-2.38c0.39,-0.89 0.59,-1.85 0.61,-2.83c0.01,-0.97 -0.17,-1.94 -0.53,-2.84c-0.36,-0.9 -0.89,-1.73 -1.57,-2.43c-0.68,-0.7 -1.49,-1.25 -2.38,-1.64c-0.9,-0.38 -1.86,-0.59 -2.83,-0.6c-0.97,-0.02 -1.94,0.16 -2.85,0.52l-37.03,14.82c-1.61,0.61 -2.96,1.76 -3.81,3.26c-0.86,1.5 -1.16,3.26 -0.85,4.96l0,1.33l-17.71,8.81c-1.22,0.63 -2.6,0.89 -3.98,0.78c-1.37,-0.12 -2.69,-0.62 -3.79,-1.44l-18,-13.78c-3.84,-2.88 -8.52,-4.44 -13.33,-4.44l-20.07,0c-2.73,0 -5.4,0.75 -7.73,2.18c-2.32,1.42 -4.21,3.46 -5.45,5.89l-13.26,-0.67c-1.28,-0.05 -2.56,0.23 -3.7,0.82l-12.37,6.14l-21.33,-5.33l0,-0.96c0.16,-1.5 -0.15,-3.02 -0.88,-4.34c-0.73,-1.33 -1.84,-2.4 -3.2,-3.07l-29.62,-14.81c-1.73,-0.72 -3.66,-0.76 -5.42,-0.11c-1.75,0.65 -3.19,1.94 -4.04,3.61c-0.84,1.66 -1.02,3.59 -0.51,5.39c0.52,1.79 1.7,3.33 3.3,4.29l25.11,12.59l-6.07,67.1l-13.33,-4.44c-0.96,-0.31 -1.97,-0.43 -2.98,-0.35c-1,0.08 -1.98,0.35 -2.88,0.81c-0.89,0.46 -1.69,1.09 -2.35,1.85c-0.65,0.77 -1.15,1.66 -1.46,2.62c-0.31,0.95 -0.43,1.96 -0.35,2.97c0.08,1 0.36,1.98 0.81,2.88c0.46,0.9 1.09,1.7 1.86,2.35c0.76,0.65 1.65,1.15 2.61,1.46l22.21,7.41c0.79,0.1 1.59,0.1 2.38,0c1.43,-0.03 2.84,-0.44 4.07,-1.19c0.94,-0.61 1.73,-1.43 2.3,-2.39c0.58,-0.96 0.93,-2.04 1.03,-3.16l0.59,-6.89l9.56,4.74c0.88,5.5 3.76,10.48 8.07,14l42.74,30.66c1.51,1.25 3.27,2.19 5.15,2.76c1.89,0.57 3.87,0.75 5.83,0.54c1.96,-0.2 3.85,-0.8 5.58,-1.75c1.73,-0.95 3.25,-2.23 4.47,-3.77c2.82,1.07 5.83,1.54 8.84,1.37c3.01,-0.17 5.95,-0.96 8.64,-2.34l40.06,-19.99c2.42,-1.22 4.52,-3 6.11,-5.19c1.6,-2.19 2.65,-4.73 3.08,-7.4c0.07,-0.79 0.07,-1.58 0,-2.37l14.07,-4.67l0,0.89c0.19,1.04 0.6,2.03 1.2,2.9c0.6,0.86 1.38,1.59 2.28,2.14c1.22,0.75 2.64,1.14 4.08,1.11c0.8,-0.02 1.6,-0.14 2.37,-0.37l22.21,-7.41c0.93,-0.31 1.78,-0.8 2.52,-1.44c0.73,-0.64 1.33,-1.42 1.77,-2.3c0.43,-0.87 0.68,-1.82 0.75,-2.79c0.07,-0.98 -0.06,-1.95 -0.37,-2.88c-0.31,-0.92 -0.8,-1.77 -1.44,-2.51c-0.64,-0.73 -1.42,-1.33 -2.3,-1.77c-0.87,-0.43 -1.82,-0.69 -2.79,-0.75c-0.98,-0.07 -1.95,0.06 -2.88,0.37zm-162.93,15.26c-1.17,-0.98 -2.02,-2.29 -2.41,-3.76c-0.4,-1.47 -0.34,-3.03 0.18,-4.46c0.08,-0.26 0.22,-0.49 0.42,-0.68c0.19,-0.18 0.43,-0.31 0.7,-0.36c0.44,0 1.03,0 1.92,0.59l44.81,32.37l-2.45,7.4l-43.17,-31.1zm105.61,5.92l-40.07,20c-1.74,0.88 -3.77,1.04 -5.63,0.44c0.48,-2.63 0.24,-5.34 -0.7,-7.84c-0.94,-2.51 -2.54,-4.71 -4.63,-6.38l-44.44,-32.36c-2.1,-1.68 -4.59,-2.81 -7.24,-3.3c-2.64,-0.49 -5.37,-0.33 -7.94,0.48c-3.53,1.02 -6.62,3.22 -8.74,6.22l-10.07,-5.03c-0.43,-0.19 -0.87,-0.32 -1.33,-0.37l3.92,-43.18l22.22,5.48l1.41,-0.15c1.16,-0.01 2.3,-0.28 3.33,-0.81l13.03,-6.59l4.82,0l-5.56,11.18c-0.88,1.75 -1.03,3.77 -0.41,5.63c0.61,1.86 1.93,3.41 3.67,4.29l1.56,0.82c4.82,2.42 10.36,3 15.58,1.64c5.21,-1.37 9.76,-4.58 12.78,-9.05l7.41,0l47.25,53.99c0.2,0.39 0.42,0.76 0.67,1.11c0.25,0.23 0.44,0.52 0.54,0.85c0.11,0.33 0.12,0.67 0.05,1.01c0.03,0.38 -0.05,0.77 -0.23,1.11c-0.19,0.34 -0.46,0.62 -0.81,0.81l-0.44,0zm10.07,-15.33l-48.58,-55.55c-0.69,-0.78 -1.53,-1.4 -2.47,-1.84c-0.95,-0.43 -1.98,-0.66 -3.01,-0.67l-14.82,0c-1.36,0 -2.7,0.38 -3.87,1.1c-1.16,0.72 -2.1,1.75 -2.72,2.97l-0.81,1.55c-0.79,1.56 -2.1,2.8 -3.71,3.49l8.3,-16.52l20.07,0c1.6,0 3.16,0.52 4.44,1.48l18.37,13.78c3.3,2.46 7.23,3.97 11.34,4.33c4.1,0.37 8.23,-0.41 11.92,-2.26l13.85,-6.89l8.96,49.33l-17.26,5.7z" fill="black" id="svg_7"/>
  </g>
 </g>
</svg>