<?xml version="1.0"?>
<svg width="800" height="800" xmlns="http://www.w3.org/2000/svg" xmlns:svg="http://www.w3.org/2000/svg">
 <g class="layer">
  <title>Layer 1</title>
  <rect fill="none" height="800" id="svg_1" width="800"/>
  <path d="m399.88,557.77c120.34,0 217.89,-97.55 217.89,-217.89c0,-120.33 -97.55,-217.88 -217.89,-217.88c-120.33,0 -217.88,97.55 -217.88,217.88c0,120.34 97.55,217.89 217.88,217.89z" fill="#FFB54E" id="svg_2" stroke="black" stroke-width="1.56"/>
  <path d="m400.37,533.12c102.54,0 185.67,-83.13 185.67,-185.68c0,-102.55 -83.13,-185.68 -185.67,-185.68c-102.55,0 -185.68,83.13 -185.68,185.68c0,102.55 83.13,185.68 185.68,185.68z" fill="#FF9A1B" id="svg_3" stroke="black" stroke-width="1.56"/>
  <path d="m400,509.37c89.43,0 161.93,-72.5 161.93,-161.93c0,-89.43 -72.5,-161.93 -161.93,-161.93c-89.43,0 -161.93,72.5 -161.93,161.93c0,89.43 72.5,161.93 161.93,161.93z" fill="#FFCE8B" id="svg_4" stroke="black" stroke-width="1.56"/>
  <path d="m400.5,286.46l-5.43,5.25c0.04,0.03 0.07,0.07 0.11,0.1l5.32,-5.35zm-50.2,110.12c-3.21,-2.66 -7.96,-2.19 -10.6,1.03c-2.65,3.23 -2.19,7.99 1.03,10.65l9.57,-11.68zm-46.78,-30.35c1.99,3.67 6.57,5.01 10.22,3.01c3.65,-2.01 4.99,-6.6 2.99,-10.26l-13.21,7.25zm111.74,-54.26c2.94,2.96 7.71,2.95 10.65,0c2.94,-2.95 2.94,-7.74 0,-10.69l-10.65,10.69zm-107.64,11.16c0,-21.69 12.2,-39.87 28.86,-47.52c16.18,-7.43 37.93,-5.46 58.59,16.1l10.86,-10.49c-24.52,-25.58 -52.99,-29.8 -75.71,-19.36c-22.26,10.21 -37.67,33.93 -37.67,61.27l15.07,0zm57.71,104.49c5.14,4.08 10.66,8.42 16.26,11.7c5.59,3.28 11.98,5.95 18.91,5.95l0,-15.12c-3.11,0 -6.77,-1.22 -11.31,-3.89c-4.54,-2.66 -9.25,-6.33 -14.54,-10.51l-9.32,11.87zm70.34,0c14.33,-11.34 32.64,-24.33 47,-40.57c14.63,-16.54 25.78,-37.04 25.78,-63.92l-15.07,0c0,22.16 -9.02,39.24 -21.97,53.87c-13.2,14.93 -29.84,26.7 -45.06,38.75l9.32,11.87zm72.78,-104.49c0,-27.34 -15.41,-51.06 -37.67,-61.27c-22.72,-10.44 -51.19,-6.22 -75.71,19.36l10.86,10.49c20.66,-21.56 42.41,-23.53 58.59,-16.1c16.66,7.65 28.86,25.83 28.86,47.52l15.07,0zm-82.1,92.62c-5.29,4.18 -10,7.85 -14.54,10.51c-4.54,2.67 -8.2,3.89 -11.31,3.89l0,15.12c6.93,0 13.32,-2.67 18.91,-5.95c5.6,-3.28 11.12,-7.62 16.26,-11.7l-9.32,-11.87zm-51.7,0c-7.99,-6.33 -16.11,-12.36 -24.35,-19.17l-9.57,11.68c8.33,6.89 17.14,13.46 24.6,19.36l9.32,-11.87zm-57.92,-56.77c-5.63,-10.35 -9.11,-22.07 -9.11,-35.85l-15.07,0c0,16.51 4.22,30.71 10.97,43.1l13.21,-7.25zm78.45,-67.17l20.08,20.16l10.65,-10.69l-20.09,-20.16l-10.64,10.69z" fill="black" id="svg_5"/>
 </g>
</svg>