<?xml version="1.0"?>
<svg width="800" height="800" xmlns="http://www.w3.org/2000/svg" xmlns:svg="http://www.w3.org/2000/svg" xmlns:xlink="http://www.w3.org/1999/xlink">
 <defs>
  <clipPath id="clip0_0_1">
   <rect fill="white" height="237" id="svg_1" transform="translate(282 222)" width="237"/>
  </clipPath>
  <symbol height="800" id="svg_22" width="800" xmlns="http://www.w3.org/2000/svg" xmlns:svg="http://www.w3.org/2000/svg" xmlns:xlink="http://www.w3.org/1999/xlink">
   <defs>
    <clipPath id="svg_20">
     <rect fill="none" height="237" id="svg_21" transform="translate(282 222)" width="237"/>
    </clipPath>
    <symbol height="800" id="svg_14" viewBox="0 0 800 800" width="800" xmlns="http://www.w3.org/2000/svg">
     <rect fill="none" height="800" id="svg_19" width="800"/>
     <path d="m399.88,557.77c120.34,0 217.89,-97.55 217.89,-217.89c0,-120.33 -97.55,-217.88 -217.89,-217.88c-120.33,0 -217.88,97.55 -217.88,217.88c0,120.34 97.55,217.89 217.88,217.89z" fill="#FFB54E" id="svg_18" stroke="black" stroke-width="1.56"/>
     <path d="m400.37,533.12c102.54,0 185.67,-83.13 185.67,-185.68c0,-102.55 -83.13,-185.68 -185.67,-185.68c-102.55,0 -185.68,83.13 -185.68,185.68c0,102.55 83.13,185.68 185.68,185.68z" fill="#FF9A1B" id="svg_17" stroke="black" stroke-width="1.56"/>
     <path d="m400,509.37c89.43,0 161.93,-72.5 161.93,-161.93c0,-89.43 -72.5,-161.93 -161.93,-161.93c-89.43,0 -161.93,72.5 -161.93,161.93c0,89.43 72.5,161.93 161.93,161.93z" fill="#FFCE8B" id="svg_16" stroke="black" stroke-width="1.56"/>
     <path d="m421.96,251.31c-9.76,-3.03 -15.86,8.47 -11.59,17.54c4.99,9.96 7.5,20.95 7.32,32.07c0,38.11 -31.72,69.57 -70.76,69.57c-4.29,-0.1 -8.57,-0.5 -12.81,-1.21c-10.98,-1.81 -23.18,7.26 -17.08,16.94c8.37,13.19 19.99,24.05 33.75,31.56c13.77,7.52 29.23,11.44 44.94,11.4c51.24,0 92.72,-40.54 92.72,-90.75c0,-41.14 -29.28,-75.63 -66.49,-87.12zm-26.23,153.67c-13.38,-0.09 -26.47,-3.86 -37.82,-10.89c23.03,-2.65 44.27,-13.61 59.68,-30.79c15.41,-17.19 23.92,-39.39 23.89,-62.38c0.1,-3.85 -0.1,-7.69 -0.61,-11.5c7.09,6.08 12.78,13.6 16.68,22.06c3.89,8.46 5.9,17.65 5.89,26.95c0.61,36.3 -29.89,66.55 -67.71,66.55zm-59.17,-114.95l-16.47,22.99c-1.26,1.78 -2.01,3.86 -2.16,6.03c-0.15,2.17 0.31,4.34 1.31,6.28c1.01,1.93 2.53,3.55 4.4,4.69c1.87,1.13 4.02,1.74 6.21,1.75l42.7,0c3.24,0 6.34,-1.27 8.63,-3.54c2.28,-2.27 3.57,-5.35 3.57,-8.56c0,-3.21 -1.29,-6.29 -3.57,-8.55c-2.29,-2.27 -5.39,-3.55 -8.63,-3.55l-18.91,0c2.3,-3.68 4.95,-7.12 7.93,-10.28c3.66,-5.45 10.37,-11.5 11.59,-17.55c1.22,-4.23 -1.22,-9.07 -4.88,-11.49c-6.1,-4.24 -16.47,-2.42 -23.18,-2.42l-21.35,0c-3.24,0 -6.34,1.27 -8.63,3.54c-2.29,2.27 -3.57,5.35 -3.57,8.56c0,3.21 1.28,6.28 3.57,8.55c2.29,2.27 5.39,3.55 8.63,3.55l12.81,0z" fill="black" id="svg_15"/>
    </symbol>
   </defs>
   <g class="layer">
    <title>Layer 1</title>
    <use id="svg_13" transform="matrix(0.333333 0 0 0.333333 0 0)" x="0" xlink:href="#svg_14" y="0"/>
   </g>
  </symbol>
 </defs>
 <g class="layer">
  <title>Layer 1</title>
  <use id="svg_23" transform="matrix(2.96943 0 0 2.97542 4.02016 4.22236)" x="0" xlink:href="#svg_22" y="0"/>
 </g>
</svg>