<svg width="800" height="800" viewBox="0 0 800 800" fill="none" xmlns="http://www.w3.org/2000/svg">
<path d="M399.883 557.766C520.216 557.766 617.766 460.216 617.766 339.883C617.766 219.549 520.216 122 399.883 122C279.549 122 182 219.549 182 339.883C182 460.216 279.549 557.766 399.883 557.766Z" fill="#FFB54E" stroke="black" stroke-width="1.5625"/>
<path d="M400.366 533.12C502.914 533.12 586.045 449.989 586.045 347.441C586.045 244.893 502.914 161.761 400.366 161.761C297.818 161.761 214.686 244.893 214.686 347.441C214.686 449.989 297.818 533.12 400.366 533.12Z" fill="#FF9A1B" stroke="black" stroke-width="1.5625"/>
<path d="M400 509.369C489.43 509.369 561.928 436.871 561.928 347.441C561.928 258.01 489.43 185.512 400 185.512C310.57 185.512 238.072 258.01 238.072 347.441C238.072 436.871 310.57 509.369 400 509.369Z" fill="#FFCE8B" stroke="black" stroke-width="1.5625"/>
<path fill-rule="evenodd" clip-rule="evenodd" d="M457.885 226.233C470.555 222.598 483.167 232.151 483.167 245.383V373.333C483.167 395.332 465.407 413.167 443.5 413.167C421.593 413.167 403.833 395.332 403.833 373.333C403.833 351.334 421.593 333.5 443.5 333.5C450.725 333.5 457.499 335.44 463.333 338.829V284.42L364.167 312.872V403.208C364.167 425.207 346.407 443.042 324.5 443.042C302.593 443.042 284.833 425.207 284.833 403.208C284.833 381.209 302.593 363.375 324.5 363.375C331.725 363.375 338.499 365.315 344.333 368.704V273.836C344.333 264.943 350.204 257.128 358.718 254.685L457.885 226.233ZM451.105 247.559C457.2 245.723 463.333 250.305 463.333 256.695C463.333 260.907 460.581 264.62 456.564 265.831L376.395 289.983C370.3 291.819 364.167 287.236 364.167 280.847C364.167 276.635 366.919 272.921 370.936 271.711L451.105 247.559ZM423.832 373.333C423.832 384.241 432.638 393.084 443.5 393.084C454.363 393.084 463.168 384.241 463.168 373.333C463.168 362.425 454.363 353.583 443.5 353.583C432.638 353.583 423.832 362.425 423.832 373.333ZM304.832 403.208C304.832 414.116 313.638 422.959 324.5 422.959C335.362 422.959 344.168 414.116 344.168 403.208C344.168 392.3 335.362 383.458 324.5 383.458C313.638 383.458 304.832 392.3 304.832 403.208Z" fill="#0F0F0F"/>
</svg>
