<?xml version="1.0"?>
<svg width="800" height="800" xmlns="http://www.w3.org/2000/svg" xmlns:svg="http://www.w3.org/2000/svg" xmlns:xlink="http://www.w3.org/1999/xlink">
 <defs>
  <clipPath id="clip0_0_1">
   <rect fill="none" height="237" id="svg_1" transform="translate(282 222)" width="237"/>
  </clipPath>
  <symbol height="800" id="svg_42" width="800" xmlns="http://www.w3.org/2000/svg" xmlns:svg="http://www.w3.org/2000/svg" xmlns:xlink="http://www.w3.org/1999/xlink">
   <defs>
    <clipPath id="svg_40">
     <rect fill="none" height="237" id="svg_41" transform="translate(282 222)" width="237"/>
    </clipPath>
    <symbol height="800" id="svg_31" viewBox="0 0 800 800" width="800" xmlns="http://www.w3.org/2000/svg">
     <rect fill="none" height="800" id="svg_39" width="800"/>
     <path d="m399.88,557.77c120.34,0 217.89,-97.55 217.89,-217.89c0,-120.33 -97.55,-217.88 -217.89,-217.88c-120.33,0 -217.88,97.55 -217.88,217.88c0,120.34 97.55,217.89 217.88,217.89z" fill="#FFB54E" id="svg_38" stroke="black" stroke-width="1.56"/>
     <path d="m400.37,533.12c102.54,0 185.67,-83.13 185.67,-185.68c0,-102.55 -83.13,-185.68 -185.67,-185.68c-102.55,0 -185.68,83.13 -185.68,185.68c0,102.55 83.13,185.68 185.68,185.68z" fill="#FF9A1B" id="svg_37" stroke="black" stroke-width="1.56"/>
     <path d="m400,509.37c89.43,0 161.93,-72.5 161.93,-161.93c0,-89.43 -72.5,-161.93 -161.93,-161.93c-89.43,0 -161.93,72.5 -161.93,161.93c0,89.43 72.5,161.93 161.93,161.93z" fill="#FFCE8B" id="svg_36" stroke="black" stroke-width="1.56"/>
     <g clip-path="url(#svg_32)" id="svg_34">
      <path d="m516.33,325.39c-2.49,-2.99 -6,-4.71 -9.63,-4.71l-5.45,0l0,-4.4c0,-7.91 -6.87,-14.35 -15.31,-14.35l-7.19,0l0,-8.12c0,-3.83 -1.63,-7.56 -4.47,-10.25c-5.65,-5.33 -15.41,-5.33 -21.06,0c-2.84,2.69 -4.47,6.43 -4.47,10.25l0,38.13l-97.5,0l0,-38.13c0,-3.82 -1.63,-7.56 -4.47,-10.24c-5.65,-5.34 -15.41,-5.34 -21.06,0c-2.84,2.68 -4.47,6.42 -4.47,10.24l0,8.13l-8.06,0c-3.79,0 -7.38,1.37 -10.1,3.85c-2.76,2.53 -4.34,6.07 -4.34,9.69l0,5.2l-5.4,0c-3.65,0 -7.17,1.72 -9.67,4.73c-2.37,2.85 -3.68,6.59 -3.68,10.54l0,21.96c0,3.95 1.31,7.7 3.68,10.55c2.5,3 6.03,4.72 9.67,4.72l5.4,0l0,5.21c0,3.62 1.58,7.15 4.35,9.69c2.71,2.48 6.3,3.85 10.09,3.85l8.06,0l0,8.13c0,3.82 1.63,7.56 4.47,10.24c2.82,2.66 6.56,4.13 10.53,4.13c3.97,0 7.71,-1.47 10.53,-4.13c2.84,-2.69 4.47,-6.42 4.47,-10.24l0,-38.13l97.5,0l0,38.13c0,3.82 1.63,7.56 4.47,10.24c2.82,2.66 6.56,4.13 10.53,4.13c3.97,0 7.71,-1.47 10.53,-4.13c2.84,-2.69 4.47,-6.42 4.47,-10.24l0,-8.13l7.19,0c8.44,0 15.31,-6.43 15.31,-14.35l0,-4.4l5.45,0c3.63,0 7.14,-1.72 9.64,-4.7c2.36,-2.84 3.66,-6.57 3.66,-10.5l0,-22.09c0,-3.93 -1.3,-7.66 -3.67,-10.5zm-222.98,40.29c-1.43,0 -2.82,-0.72 -3.9,-2.02c-1.24,-1.48 -1.95,-3.58 -1.95,-5.75l0,-21.96c0,-2.16 0.71,-4.26 1.95,-5.74c1.08,-1.31 2.47,-2.03 3.9,-2.03l5.4,0l0,37.5l-5.4,0zm19.84,18.75c-1.89,0 -3.72,-0.68 -5.02,-1.88c-1.24,-1.13 -1.92,-2.61 -1.92,-4.16l0,-8.96l0,-45l0,-8.95c0,-1.55 0.68,-3.04 1.91,-4.17c1.31,-1.19 3.14,-1.88 5.03,-1.88l8.06,0l0,75l-8.06,0zm30.56,15.63c0,1.8 -0.75,3.49 -2.12,4.78c-2.81,2.66 -7.94,2.66 -10.76,0c-1.37,-1.29 -2.12,-2.99 -2.12,-4.78l0,-11.88l0,-82.5l0,-11.87c0,-1.8 0.75,-3.5 2.12,-4.79c1.4,-1.33 3.37,-2.09 5.38,-2.09c2.01,0 3.98,0.76 5.38,2.09c1.37,1.29 2.12,2.99 2.12,4.79l0,41.88l0,22.5l0,41.87zm7.5,-45.63l0,-15l97.5,0l0,15l-97.5,0zm120,45.63c0,1.8 -0.75,3.49 -2.12,4.78c-2.81,2.66 -7.94,2.66 -10.76,0c-1.37,-1.29 -2.12,-2.99 -2.12,-4.78l0,-41.88l0,-22.5l0,-41.87c0,-1.8 0.75,-3.5 2.12,-4.79c1.4,-1.32 3.37,-2.08 5.38,-2.08c2.01,0 3.98,0.76 5.38,2.08c1.37,1.29 2.12,2.99 2.12,4.79l0,11.88l0,82.5l0,11.87zm22.5,-22.48c0,3.78 -3.5,6.85 -7.81,6.85l-7.19,0l0,-75l7.19,0c4.3,0 7.81,3.07 7.81,6.85l0,8.15l0,45l0,8.15zm18.75,-19.61c0,2.16 -0.7,4.23 -1.93,5.7c-1.08,1.3 -2.45,2.01 -3.87,2.01l-5.45,0l0,-37.5l5.45,0c1.42,0 2.79,0.71 3.87,2.01c1.23,1.47 1.93,3.55 1.93,5.7l0,22.08z" fill="black" id="svg_35"/>
     </g>
     <defs>
      <clipPath id="svg_32">
       <rect fill="white" height="240" id="svg_33" transform="translate(280 227)" width="240"/>
      </clipPath>
     </defs>
    </symbol>
   </defs>
   <g class="layer">
    <title>Layer 1</title>
    <use id="svg_30" transform="matrix(0.333333 0 0 0.333333 0 0)" x="0" xlink:href="#svg_31" y="0"/>
   </g>
  </symbol>
 </defs>
 <g class="layer">
  <title>Layer 1</title>
  <use id="svg_43" transform="matrix(2.97489 0 0 2.97559 3.29304 3.19961)" x="0" xlink:href="#svg_42" y="0"/>
 </g>
</svg>