<?xml version="1.0"?>
<svg width="800" height="800" xmlns="http://www.w3.org/2000/svg" xmlns:svg="http://www.w3.org/2000/svg" xmlns:xlink="http://www.w3.org/1999/xlink">
 <defs>
  <clipPath id="clip0_0_1">
   <rect fill="none" height="237" id="svg_1" transform="translate(282 222)" width="237"/>
  </clipPath>
  <symbol height="800" id="svg_54" width="800" xmlns="http://www.w3.org/2000/svg" xmlns:svg="http://www.w3.org/2000/svg" xmlns:xlink="http://www.w3.org/1999/xlink">
   <g class="layer">
    <title>Layer 1</title>
    <use id="svg_53" transform="matrix(0.333333 0 0 0.333333 0 0)" x="0" xlink:href="#svg_44" y="0"/>
   </g>
   <defs>
    <symbol height="800" id="svg_44" viewBox="0 0 800 800" width="800" xmlns="http://www.w3.org/2000/svg">
     <rect fill="none" height="800" id="svg_52" width="800"/>
     <path d="m399.88,557.77c120.34,0 217.89,-97.55 217.89,-217.89c0,-120.33 -97.55,-217.88 -217.89,-217.88c-120.33,0 -217.88,97.55 -217.88,217.88c0,120.34 97.55,217.89 217.88,217.89z" fill="#FFB54E" id="svg_51" stroke="black" stroke-width="1.56"/>
     <path d="m400.37,533.12c102.54,0 185.67,-83.13 185.67,-185.68c0,-102.55 -83.13,-185.68 -185.67,-185.68c-102.55,0 -185.68,83.13 -185.68,185.68c0,102.55 83.13,185.68 185.68,185.68z" fill="#FF9A1B" id="svg_50" stroke="black" stroke-width="1.56"/>
     <path d="m400,509.37c89.43,0 161.93,-72.5 161.93,-161.93c0,-89.43 -72.5,-161.93 -161.93,-161.93c-89.43,0 -161.93,72.5 -161.93,161.93c0,89.43 72.5,161.93 161.93,161.93z" fill="#FFCE8B" id="svg_49" stroke="black" stroke-width="1.56"/>
     <g clip-path="url(#svg_45)" id="svg_47">
      <path d="m520.98,323.24c-0.2,-6.29 -5.33,-11.36 -11.67,-11.57l-1.67,-0.02c-3.9,0 -14.71,0.37 -28.09,2.96c-2.39,-17.93 -7.24,-30.66 -7.64,-31.67c-1.19,-3.04 -3.59,-5.46 -6.62,-6.71c-1.48,-0.6 -3.05,-0.91 -4.61,-0.91c-1.66,0 -3.31,0.34 -4.86,1.01c-0.88,0.39 -10.61,4.74 -22.76,13.22c-10.63,-20.08 -22.95,-33.02 -23.85,-33.96c-2.28,-2.36 -5.42,-3.69 -8.71,-3.69c-3.28,0 -6.43,1.33 -8.7,3.69c-0.91,0.93 -13.23,13.9 -23.88,33.99c-12.11,-8.45 -21.86,-12.86 -22.73,-13.25c-1.55,-0.67 -3.2,-1.01 -4.86,-1.01c-1.56,0 -3.13,0.3 -4.61,0.91c-3.03,1.24 -5.42,3.67 -6.62,6.7c-0.4,1.02 -5.24,13.74 -7.64,31.67c-13.38,-2.58 -24.19,-2.95 -28.09,-2.95l-1.68,0.02c-6.34,0.21 -11.46,5.28 -11.67,11.57c-0.07,2.24 -1.35,55.24 31.89,88.21c30.37,30.12 78.03,31.65 87.28,31.65l1.23,-0.02c0.03,0 0.05,0.02 0.08,0.02c0.02,0 0.04,-0.02 0.07,-0.02l1.24,0.02c9.24,0 56.9,-1.53 87.27,-31.65c33.25,-32.96 31.97,-85.97 31.9,-88.21zm-60.3,-35.97c0,0 4.82,12.54 7.03,30.14c-6.98,1.94 -14.24,4.54 -21.44,8.03c-1.87,-8.9 -4.66,-17.24 -7.96,-24.86c12.3,-8.84 22.37,-13.31 22.37,-13.31zm-120.35,0c0,0 10.06,4.44 22.37,13.29c-3.3,7.64 -6.11,16.01 -7.98,24.94c-7.2,-3.49 -14.44,-6.13 -21.43,-8.07c2.21,-17.61 7.04,-30.16 7.04,-30.16zm-19.89,115.73c-29.94,-29.69 -28.37,-79.38 -28.37,-79.38c0,0 0.45,-0.02 1.3,-0.02c6.31,0 34.45,1 59.39,14.32c-0.29,3.15 -0.46,6.34 -0.46,9.58c0,36.79 20.13,67.86 31.66,82.66c-17.27,-2.04 -44.46,-8.26 -63.52,-27.16zm80.33,27.87c-0.24,-0.08 -0.46,-0.15 -0.76,-0.26c-4.24,-4.58 -35.66,-40.03 -35.66,-83.11c0,-46.2 36.15,-83.65 36.15,-83.65c0,0 36.15,37.45 36.15,83.65c0,44.33 -33.19,80.51 -35.88,83.37zm79.8,-27.87c-19.06,18.9 -46.25,25.12 -63.53,27.16c11.53,-14.8 31.66,-45.87 31.66,-82.66c0,-3.26 -0.17,-6.47 -0.46,-9.63c24.94,-13.32 53.09,-14.27 59.4,-14.27c0.84,0 1.3,0.01 1.3,0.01c0,0 1.57,49.7 -28.37,79.39z" fill="black" id="svg_48"/>
     </g>
     <defs>
      <clipPath id="svg_45">
       <rect fill="white" height="239" id="svg_46" transform="translate(280 228)" width="241"/>
      </clipPath>
     </defs>
    </symbol>
   </defs>
  </symbol>
 </defs>
 <g class="layer">
  <title>Layer 1</title>
  <use id="svg_55" transform="matrix(2.97197 0 0 2.98037 3.68192 3.06192)" x="0" xlink:href="#svg_54" y="0"/>
 </g>
</svg>