<?xml version="1.0"?>
<svg width="800" height="800" xmlns="http://www.w3.org/2000/svg" xmlns:svg="http://www.w3.org/2000/svg" xmlns:xlink="http://www.w3.org/1999/xlink">
 <defs>
  <clipPath id="clip0_0_1">
   <rect fill="white" height="237" id="svg_1" transform="translate(282 222)" width="237"/>
  </clipPath>
  <symbol height="800" id="svg_50" width="800" xmlns="http://www.w3.org/2000/svg" xmlns:svg="http://www.w3.org/2000/svg" xmlns:xlink="http://www.w3.org/1999/xlink">
   <defs>
    <clipPath id="svg_48">
     <rect fill="none" height="237" id="svg_49" transform="translate(282 222)" width="237"/>
    </clipPath>
    <symbol height="800" id="svg_39" viewBox="0 0 800 800" width="800" xmlns="http://www.w3.org/2000/svg">
     <rect fill="none" height="800" id="svg_47" width="800"/>
     <path d="m399.88,557.77c120.34,0 217.89,-97.55 217.89,-217.89c0,-120.33 -97.55,-217.88 -217.89,-217.88c-120.33,0 -217.88,97.55 -217.88,217.88c0,120.34 97.55,217.89 217.88,217.89z" fill="#FFB54E" id="svg_46" stroke="black" stroke-width="1.56"/>
     <path d="m400.37,533.12c102.54,0 185.67,-83.13 185.67,-185.68c0,-102.55 -83.13,-185.68 -185.67,-185.68c-102.55,0 -185.68,83.13 -185.68,185.68c0,102.55 83.13,185.68 185.68,185.68z" fill="#FF9A1B" id="svg_45" stroke="black" stroke-width="1.56"/>
     <path d="m400,509.37c89.43,0 161.93,-72.5 161.93,-161.93c0,-89.43 -72.5,-161.93 -161.93,-161.93c-89.43,0 -161.93,72.5 -161.93,161.93c0,89.43 72.5,161.93 161.93,161.93z" fill="#FFCE8B" id="svg_44" stroke="black" stroke-width="1.56"/>
     <path d="m461,242.96c0,-5.5 4.48,-9.96 10,-9.96c5.52,0 10,4.46 10,9.96l0,5.83l12.71,-12.65c3.9,-3.89 10.24,-3.89 14.14,0c3.91,3.89 3.91,10.19 0,14.08l-12.71,12.66l5.86,0c5.52,0 10,4.45 10,9.95c0,5.5 -4.48,9.96 -10,9.96l-25.86,0l-77.12,76.81c-3.91,3.88 -10.24,3.88 -14.14,0c-3.91,-3.89 -3.91,-10.2 0,-14.09l77.12,-76.8l0,-25.75z" fill="#1F1F1F" id="svg_43"/>
     <path d="m444.92,270.73c4.42,-4.39 3.76,-11.73 -1.74,-14.69c-15.53,-8.34 -33.3,-13.08 -52.18,-13.08c-60.75,0 -110,49.04 -110,109.54c0,60.5 49.25,109.54 110,109.54c60.75,0 110,-49.04 110,-109.54c0,-18.77 -4.74,-36.43 -13.09,-51.87c-2.96,-5.48 -10.34,-6.14 -14.76,-1.75l-0.29,0.3c-3.31,3.29 -3.83,8.39 -1.7,12.53c6.29,12.23 9.84,26.1 9.84,40.79c0,49.5 -40.29,89.63 -90,89.63c-49.71,0 -90,-40.13 -90,-89.63c0,-49.5 40.29,-89.62 90,-89.62c14.78,0 28.73,3.54 41.04,9.83c4.15,2.13 9.28,1.61 12.59,-1.68l0.29,-0.3z" fill="#1F1F1F" id="svg_42"/>
     <path d="m414.9,300.63c4.73,-4.7 3.54,-12.63 -2.84,-14.63c-6.64,-2.08 -13.72,-3.21 -21.06,-3.21c-38.66,0 -70,31.21 -70,69.71c0,38.5 31.34,69.71 70,69.71c38.66,0 70,-31.21 70,-69.71c0,-7.27 -1.12,-14.28 -3.19,-20.86c-2,-6.36 -9.96,-7.55 -14.69,-2.84l-0.93,0.92c-2.81,2.8 -3.59,6.97 -2.64,10.81c0.95,3.84 1.45,7.85 1.45,11.97c0,27.5 -22.39,49.79 -50,49.79c-27.61,0 -50,-22.29 -50,-49.79c0,-27.5 22.39,-49.79 50,-49.79c4.17,0 8.23,0.51 12.1,1.47c3.86,0.95 8.07,0.17 10.88,-2.63l0.92,-0.92z" fill="#1F1F1F" id="svg_41"/>
     <path d="m381.78,324.13c4.09,-1.36 6.15,3.36 3.1,6.39l-8.05,8.03c-7.81,7.77 -7.81,20.36 0,28.13c7.8,7.77 20.45,7.77 28.25,0l7.95,-7.92c3.06,-3.05 7.79,-0.98 6.4,3.1c-4.02,11.76 -15.3,20.52 -28.43,20.52c-16.57,0 -30,-13.38 -30,-29.88c0,-13.15 8.88,-24.42 20.78,-28.37z" fill="#1F1F1F" id="svg_40"/>
    </symbol>
   </defs>
   <g class="layer">
    <title>Layer 1</title>
    <use id="svg_38" transform="matrix(0.333333 0 0 0.333333 0 0)" x="0" xlink:href="#svg_39" y="0"/>
   </g>
  </symbol>
 </defs>
 <g class="layer">
  <title>Layer 1</title>
  <use id="svg_51" transform="matrix(2.96765 0 0 2.97467 4.2585 3.32251)" x="0" xlink:href="#svg_50" y="0"/>
 </g>
</svg>