<?xml version="1.0"?>
<svg width="800" height="800" xmlns="http://www.w3.org/2000/svg" xmlns:svg="http://www.w3.org/2000/svg" xmlns:xlink="http://www.w3.org/1999/xlink">
 <defs>
  <clipPath id="clip0_0_1">
   <rect fill="white" height="237" id="svg_1" transform="translate(282 222)" width="237"/>
  </clipPath>
  <symbol height="800" id="svg_11" width="800" xmlns="http://www.w3.org/2000/svg" xmlns:svg="http://www.w3.org/2000/svg" xmlns:xlink="http://www.w3.org/1999/xlink">
   <defs>
    <clipPath id="svg_9">
     <rect fill="none" height="237" id="svg_10" transform="translate(282 222)" width="237"/>
    </clipPath>
    <symbol height="800" id="svg_3" viewBox="0 0 800 800" width="800" xmlns="http://www.w3.org/2000/svg">
     <rect fill="none" height="800" id="svg_8" width="800"/>
     <path d="m399.88,557.77c120.34,0 217.89,-97.55 217.89,-217.89c0,-120.33 -97.55,-217.88 -217.89,-217.88c-120.33,0 -217.88,97.55 -217.88,217.88c0,120.34 97.55,217.89 217.88,217.89z" fill="#FFB54E" id="svg_7" stroke="black" stroke-width="1.56"/>
     <path d="m400.37,533.12c102.54,0 185.67,-83.13 185.67,-185.68c0,-102.55 -83.13,-185.68 -185.67,-185.68c-102.55,0 -185.68,83.13 -185.68,185.68c0,102.55 83.13,185.68 185.68,185.68z" fill="#FF9A1B" id="svg_6" stroke="black" stroke-width="1.56"/>
     <path d="m400,509.37c89.43,0 161.93,-72.5 161.93,-161.93c0,-89.43 -72.5,-161.93 -161.93,-161.93c-89.43,0 -161.93,72.5 -161.93,161.93c0,89.43 72.5,161.93 161.93,161.93z" fill="#FFCE8B" id="svg_5" stroke="black" stroke-width="1.56"/>
     <path d="m427.83,293.96c-7.13,-7.59 -14.57,-14.2 -22.3,-19.82c-7.74,-5.61 -14.98,-9.83 -21.74,-12.64c-6.76,-2.81 -12.95,-4.15 -18.59,-4.04c-5.63,0.11 -10.02,1.88 -13.18,5.3c-0.75,0.75 -1.39,1.61 -1.91,2.56c-0.53,0.95 -0.9,1.69 -1.13,2.22c-0.22,0.53 -0.52,1.48 -0.9,2.85c-0.37,1.36 -0.64,2.24 -0.79,2.62l-41.9,139.4l2.59,2.73c-2.93,2.05 -5.54,4.44 -7.83,7.17c-2.29,2.74 -4.3,4.98 -6.02,6.72c-1.73,1.75 -3.8,2.96 -6.2,3.65c-0.52,0.15 -1.18,0.66 -1.97,1.53c-0.79,0.88 -1.18,1.66 -1.18,2.34c0,1.37 0.67,2.51 2.03,3.42c1.35,0.91 2.85,1.36 4.5,1.36c2.1,0 4.13,-0.85 6.08,-2.56c1.96,-1.71 3.93,-3.89 5.92,-6.55c1.99,-2.66 3.43,-4.4 4.33,-5.24c1.96,-1.74 4.13,-3.41 6.54,-5.01l2.93,2.85l133.14,-45.67c2.93,-0.91 5.18,-2.28 6.76,-4.1c3.15,-3.42 4.78,-8.14 4.9,-14.18c0.11,-6.04 -1.15,-12.68 -3.78,-19.93c-2.63,-7.25 -6.55,-15 -11.77,-23.23c-5.22,-8.24 -11.39,-16.16 -18.53,-23.75zm-12.16,12.42c11.49,11.84 20.22,23.17 26.19,33.99c5.97,10.82 7.41,17.94 4.33,21.36c-3.08,3.41 -9.8,2.16 -20.16,-3.76c-10.36,-5.93 -21.25,-14.77 -32.67,-26.54c-11.56,-11.84 -20.33,-23.16 -26.3,-33.94c-5.97,-10.78 -7.41,-17.92 -4.33,-21.41c3.07,-3.42 9.81,-2.16 20.21,3.76c10.41,5.92 21.31,14.77 32.73,26.54zm-24.67,47.14c5.48,4.94 10.92,9.27 16.33,12.99c0.08,0.15 1.95,3.72 5.63,10.7l-9.46,3.31c-4.5,-8.58 -8.67,-17.58 -12.5,-27zm-38.41,-52.16c1.65,3.72 3.94,8.24 6.87,13.56c2.4,10.93 6.17,22.77 11.32,35.53c5.14,12.76 10.76,24.71 16.84,35.87l-9.35,3.19c-7.06,-13.21 -13.22,-27.05 -18.47,-41.51c-5.26,-14.46 -8.49,-27.24 -9.69,-38.32l2.48,-8.32zm-13.07,41.69c5.26,17.01 12.66,34.47 22.19,52.39l-9.23,3.3c-7.44,-14.43 -13.3,-27.98 -17.58,-40.66l4.62,-15.03zm-12.95,41.57c2.93,6.98 6.04,13.63 9.35,19.93l-9.24,3.3c-1.05,-2.05 -2.55,-5.2 -4.5,-9.45l4.39,-13.78zm82.79,-161.95l5.63,17.19l-14.53,10.71l17.91,0l5.52,17.2l5.52,-17.2l17.8,0l-14.42,-10.71l5.63,-17.08l-14.53,10.59l-14.53,-10.7zm-31.54,0l-3.04,15.6l15.43,3.07l3.04,-15.6l-15.43,-3.07zm101.49,46.92l12.39,-13.1l16.11,7.97l-8.34,-15.94l12.51,-12.87l-17.69,3.07l-8.34,-16.05l-2.47,17.99l-17.69,3.08l16.11,7.85l-2.59,18zm-4.17,28.02l14.98,10.02l-4.73,17.54l13.97,-11.39l14.87,10.02l-6.2,-17.08l13.97,-11.16l-17.91,0.79l-6.31,-16.97l-4.62,17.43l-18.02,0.8zm-6.42,-42.26l-33.57,27.79l4.17,5.13l33.57,-27.79l-4.17,-5.13zm11.72,53.76l-26.25,-2.39l-0.68,6.6l26.36,2.39l0.57,-6.6zm2.59,31.89l-4.85,15.26l14.98,4.9l4.96,-15.15l-15.09,-5.01z" fill="black" id="svg_4"/>
    </symbol>
   </defs>
   <g class="layer">
    <title>Layer 1</title>
    <use id="svg_2" transform="matrix(0.333333 0 0 0.333333 0 0)" x="0" xlink:href="#svg_3" y="0"/>
   </g>
  </symbol>
 </defs>
 <g class="layer">
  <title>Layer 1</title>
  <use id="svg_12" transform="matrix(2.96227 0 0 2.98022 4.47568 4.0823)" x="0" xlink:href="#svg_11" y="0"/>
 </g>
</svg>