<?xml version="1.0"?>
<svg width="800" height="800" xmlns="http://www.w3.org/2000/svg" xmlns:svg="http://www.w3.org/2000/svg" xmlns:xlink="http://www.w3.org/1999/xlink">
 <defs>
  <clipPath id="clip0_0_1">
   <rect fill="white" height="237" id="svg_1" transform="translate(282 222)" width="237"/>
  </clipPath>
  <symbol height="800" id="svg_36" width="800" xmlns="http://www.w3.org/2000/svg" xmlns:svg="http://www.w3.org/2000/svg" xmlns:xlink="http://www.w3.org/1999/xlink">
   <defs>
    <clipPath id="svg_34">
     <rect fill="none" height="237" id="svg_35" transform="translate(282 222)" width="237"/>
    </clipPath>
    <symbol height="800" id="svg_25" viewBox="0 0 800 800" width="800" xmlns="http://www.w3.org/2000/svg">
     <rect fill="none" height="800" id="svg_33" width="800"/>
     <path d="m399.88,557.77c120.34,0 217.89,-97.55 217.89,-217.89c0,-120.33 -97.55,-217.88 -217.89,-217.88c-120.33,0 -217.88,97.55 -217.88,217.88c0,120.34 97.55,217.89 217.88,217.89z" fill="#FFB54E" id="svg_32" stroke="black" stroke-width="1.56"/>
     <path d="m400.37,533.12c102.54,0 185.67,-83.13 185.67,-185.68c0,-102.55 -83.13,-185.68 -185.67,-185.68c-102.55,0 -185.68,83.13 -185.68,185.68c0,102.55 83.13,185.68 185.68,185.68z" fill="#FF9A1B" id="svg_31" stroke="black" stroke-width="1.56"/>
     <path d="m400,509.37c89.43,0 161.93,-72.5 161.93,-161.93c0,-89.43 -72.5,-161.93 -161.93,-161.93c-89.43,0 -161.93,72.5 -161.93,161.93c0,89.43 72.5,161.93 161.93,161.93z" fill="#FFCE8B" id="svg_30" stroke="black" stroke-width="1.56"/>
     <g clip-path="url(#svg_26)" id="svg_28">
      <path d="m369.28,244.41c3.07,-7.4 12.74,-11.3 21.24,-8.63c8.49,2.67 12.97,11.1 9.91,18.49c-3.07,7.4 -12.74,11.3 -21.24,8.63c-8.73,-2.87 -12.97,-11.09 -9.91,-18.49zm-12.27,151.22l33.74,-20.34c2.83,-1.85 4.72,-4.72 4.49,-8.01c-0.24,-1.44 -0.71,-2.67 -1.42,-3.7l-4.48,-7.81l11.32,6.37l6.37,31.24c0.95,4.93 6.37,8.21 11.8,7.19c5.66,-0.82 9.44,-5.55 8.26,-10.28l-7.08,-35.13c-0.24,-1.03 -0.47,-2.06 -1.18,-2.88c-0.71,-1.23 -1.89,-2.05 -3.07,-2.88l-29.96,-20.34l3.07,-30.41l3.53,5.35c1.18,1.64 2.84,2.87 4.96,3.28l31.62,7.4c4.48,1.03 8.96,-1.23 10.14,-4.93c1.18,-3.9 -1.42,-7.81 -5.66,-8.84l-28.32,-6.78l-8.72,-13.35l53.08,-8.02c4.48,-0.61 7.55,-4.31 6.61,-8.21c-0.71,-3.91 -4.96,-6.58 -9.44,-5.76l-69.36,10.48c-11.33,1.65 -19.35,9.66 -20.3,19.11l-4.48,44.38c-0.23,1.64 0,3.49 0.24,5.14c0.47,2.67 1.65,4.93 3.06,7.19l0.24,0.41c0.24,0.21 0.24,0.41 0.47,0.62l14.16,19.31l-25.25,15.62c-4.72,2.87 -5.89,8.42 -2.59,12.53c3.3,4.11 9.67,4.93 14.15,2.05zm-113.01,2.88l0.47,-5.75l301.77,21.98l-0.48,5.76l-301.76,-21.99z" fill="black" id="svg_29"/>
     </g>
     <defs>
      <clipPath id="svg_26">
       <rect fill="white" height="263" id="svg_27" transform="translate(244 229)" width="302"/>
      </clipPath>
     </defs>
    </symbol>
   </defs>
   <g class="layer">
    <title>Layer 1</title>
    <use id="svg_24" transform="matrix(0.333333 0 0 0.333333 0 0)" x="6" xlink:href="#svg_25" y="9"/>
   </g>
  </symbol>
 </defs>
 <g class="layer">
  <title>Layer 1</title>
  <use id="svg_37" transform="matrix(2.95857 0 0 2.96273 1.21838 -4.4745)" x="0" xlink:href="#svg_36" y="0"/>
 </g>
</svg>