<?xml version="1.0"?>
<svg width="800" height="800" xmlns="http://www.w3.org/2000/svg" xmlns:svg="http://www.w3.org/2000/svg" xmlns:xlink="http://www.w3.org/1999/xlink">
 <defs>
  <clipPath id="clip0_0_1">
   <rect fill="none" height="237" id="svg_1" transform="translate(282 222)" width="237"/>
  </clipPath>
  <symbol height="800" id="svg_13" viewBox="0 0 800 800" width="800" xmlns="http://www.w3.org/2000/svg">
   <rect fill="none" height="800" id="svg_2" width="800"/>
   <path d="m399.88,557.77c120.34,0 217.89,-97.55 217.89,-217.89c0,-120.33 -97.55,-217.88 -217.89,-217.88c-120.33,0 -217.88,97.55 -217.88,217.88c0,120.34 97.55,217.89 217.88,217.89z" fill="#FFB54E" id="svg_3" stroke="black" stroke-width="1.56"/>
   <path d="m400.37,533.12c102.54,0 185.67,-83.13 185.67,-185.68c0,-102.55 -83.13,-185.68 -185.67,-185.68c-102.55,0 -185.68,83.13 -185.68,185.68c0,102.55 83.13,185.68 185.68,185.68z" fill="#FF9A1B" id="svg_4" stroke="black" stroke-width="1.56"/>
   <path d="m400,509.37c89.43,0 161.93,-72.5 161.93,-161.93c0,-89.43 -72.5,-161.93 -161.93,-161.93c-89.43,0 -161.93,72.5 -161.93,161.93c0,89.43 72.5,161.93 161.93,161.93z" fill="#FFCE8B" id="svg_5" stroke="black" stroke-width="1.56"/>
   <g clip-path="url(#svg_12)" id="svg_6">
    <path d="m433.16,268.15c-2.3,-4.38 -4.95,-8.33 -7.55,-11.13c3.23,-4.84 5.12,-10.64 5.12,-16.91c0,-16.89 -13.76,-30.59 -30.73,-30.6c-16.97,0.01 -30.73,13.71 -30.73,30.6c0,6.26 1.9,12.07 5.13,16.91c-2.61,2.8 -5.26,6.75 -7.56,11.13c-2.31,4.44 -4.23,9.2 -4.95,13.67c-0.24,1.49 -0.35,2.94 -0.35,4.35c-0.02,4.68 1.33,8.9 3.71,12.31c3.56,5.15 9.06,8.39 15.14,10.42c6.1,2.02 12.9,2.86 19.61,2.86c8.94,-0.02 18.06,-1.46 25.44,-5.32c3.69,-1.94 6.95,-4.53 9.32,-7.96c2.37,-3.41 3.72,-7.63 3.71,-12.31c0,-1.41 -0.11,-2.86 -0.36,-4.35c-0.72,-4.47 -2.63,-9.23 -4.95,-13.67zm-48.91,-43.72c4.04,-4.03 9.58,-6.5 15.75,-6.5c6.17,0 11.71,2.47 15.76,6.5c4.03,4.03 6.53,9.55 6.53,15.68c-0.01,6.14 -2.49,11.66 -6.53,15.69c-4.05,4.02 -9.59,6.5 -15.76,6.5c-6.17,0 -11.71,-2.48 -15.75,-6.5c-4.04,-4.03 -6.53,-9.55 -6.53,-15.69c0,-6.13 2.49,-11.65 6.53,-15.68zm43.55,69.3c-2.11,3.07 -5.88,5.55 -10.86,7.19c-4.95,1.65 -10.95,2.43 -16.94,2.43c-7.99,0.02 -15.99,-1.42 -21.5,-4.35c-2.76,-1.45 -4.88,-3.23 -6.29,-5.28c-1.41,-2.06 -2.22,-4.41 -2.23,-7.55c0,-0.93 0.08,-1.95 0.25,-3.04c0.46,-3 2.07,-7.24 4.1,-11.09c1.81,-3.48 3.98,-6.68 5.73,-8.68c5.37,4.57 12.32,7.35 19.94,7.35c7.62,0 14.58,-2.77 19.95,-7.35c1.74,2 3.91,5.2 5.73,8.68c2.03,3.85 3.63,8.09 4.09,11.09c0.18,1.09 0.25,2.1 0.25,3.04c-0.01,3.14 -0.82,5.49 -2.22,7.56z" fill="black" id="svg_7"/>
    <path d="m351.63,394.74c-2.31,-4.38 -4.95,-8.33 -7.56,-11.13c3.24,-4.84 5.13,-10.65 5.13,-16.91c-0.01,-16.9 -13.76,-30.6 -30.73,-30.6c-16.97,0.01 -30.72,13.7 -30.73,30.6c0,6.25 1.89,12.06 5.13,16.91c-2.61,2.79 -5.26,6.74 -7.56,11.13c-2.32,4.45 -4.23,9.2 -4.96,13.67c-0.23,1.49 -0.35,2.94 -0.35,4.35c-0.01,4.67 1.34,8.91 3.71,12.31c3.56,5.14 9.07,8.4 15.14,10.42c6.1,2.03 12.91,2.86 19.62,2.87c8.95,-0.02 18.06,-1.47 25.45,-5.32c3.67,-1.94 6.95,-4.54 9.3,-7.96c2.37,-3.41 3.73,-7.64 3.72,-12.31c0,-1.42 -0.12,-2.86 -0.36,-4.36c-0.72,-4.47 -2.64,-9.22 -4.95,-13.67zm-48.91,-43.73c4.04,-4.02 9.59,-6.49 15.75,-6.5c6.16,0.01 11.71,2.48 15.75,6.5c4.05,4.03 6.53,9.55 6.53,15.69c0,6.14 -2.48,11.66 -6.53,15.69c-4.04,4.02 -9.59,6.5 -15.75,6.5c-6.16,0 -11.71,-2.48 -15.76,-6.5c-4.03,-4.03 -6.52,-9.55 -6.52,-15.69c0,-6.14 2.49,-11.66 6.53,-15.69zm43.54,69.31c-2.1,3.07 -5.88,5.55 -10.85,7.2c-4.95,1.64 -10.95,2.43 -16.94,2.43c-7.99,0.01 -15.99,-1.43 -21.5,-4.35c-2.77,-1.46 -4.88,-3.23 -6.3,-5.29c-1.4,-2.06 -2.21,-4.42 -2.22,-7.55c0,-0.94 0.08,-1.95 0.25,-3.04c0.46,-3.01 2.06,-7.23 4.1,-11.09c1.81,-3.49 3.99,-6.68 5.73,-8.68c5.36,4.58 12.32,7.36 19.94,7.36c7.62,0 14.57,-2.78 19.94,-7.35c1.74,1.99 3.92,5.19 5.73,8.67c2.04,3.86 3.64,8.08 4.1,11.1c0.17,1.07 0.25,2.09 0.25,3.04c-0.01,3.13 -0.82,5.49 -2.23,7.55z" fill="black" id="svg_8"/>
    <path d="m519.65,408.41c-0.73,-4.47 -2.64,-9.22 -4.95,-13.67c-2.31,-4.38 -4.96,-8.34 -7.57,-11.13c3.24,-4.85 5.13,-10.66 5.13,-16.91c-0.01,-16.9 -13.76,-30.6 -30.73,-30.6c-16.97,0.01 -30.72,13.7 -30.73,30.6c0,6.25 1.89,12.06 5.13,16.91c-2.61,2.79 -5.26,6.75 -7.57,11.14c-2.3,4.44 -4.22,9.19 -4.95,13.66c-0.23,1.49 -0.35,2.94 -0.35,4.36c-0.01,4.67 1.35,8.9 3.71,12.31c3.57,5.13 9.07,8.39 15.15,10.41c6.1,2.02 12.9,2.86 19.61,2.87c8.95,-0.02 18.07,-1.47 25.45,-5.32c3.68,-1.94 6.95,-4.54 9.31,-7.97c2.36,-3.4 3.72,-7.63 3.71,-12.31c0,-1.41 -0.12,-2.86 -0.35,-4.35zm-53.87,-57.4c4.04,-4.02 9.59,-6.49 15.75,-6.5c6.16,0.01 11.71,2.48 15.75,6.5c4.04,4.03 6.53,9.55 6.53,15.69c0,6.14 -2.49,11.66 -6.53,15.69c-4.04,4.02 -9.59,6.5 -15.75,6.5c-6.16,0 -11.71,-2.48 -15.75,-6.5c-4.05,-4.03 -6.53,-9.55 -6.53,-15.69c0,-6.14 2.48,-11.66 6.53,-15.69zm43.55,69.31c-2.1,3.07 -5.88,5.55 -10.86,7.2c-4.94,1.64 -10.95,2.43 -16.94,2.43c-7.99,0.01 -15.99,-1.43 -21.5,-4.35c-2.76,-1.46 -4.88,-3.23 -6.29,-5.28c-1.41,-2.07 -2.22,-4.42 -2.23,-7.55c0,-0.95 0.08,-1.96 0.25,-3.05c0.46,-3.01 2.06,-7.23 4.1,-11.09c1.81,-3.49 3.98,-6.68 5.73,-8.68c5.37,4.58 12.33,7.36 19.94,7.36c7.62,0 14.57,-2.78 19.94,-7.35c1.75,1.99 3.92,5.19 5.73,8.67c2.04,3.86 3.64,8.08 4.1,11.1c0.17,1.08 0.25,2.09 0.25,3.03c-0.01,3.14 -0.82,5.49 -2.22,7.56z" fill="black" id="svg_9"/>
    <path d="m328.11,306.5l-9.14,-2.05c1.96,-6.33 5.16,-12.26 9.47,-17.42c2.23,-2.68 4.77,-5.16 7.59,-7.37c2.75,-2.15 5.74,-4.05 8.99,-5.64l-3.73,-7.55c-3.8,1.86 -7.29,4.09 -10.48,6.58c-3.29,2.58 -6.26,5.48 -8.87,8.6c-5.17,6.2 -8.95,13.34 -11.22,20.95l-10.46,-2.34l10.44,22.88l17.41,-16.64z" fill="black" id="svg_10"/>
    <path d="m412.16,427.77c-3.74,0.85 -7.59,1.3 -11.45,1.3c-2.86,0 -5.73,-0.24 -8.58,-0.73c-3.44,-0.59 -6.87,-1.54 -10.19,-2.87c-3.25,-1.28 -6.4,-2.92 -9.41,-4.92l-4.69,7c3.51,2.34 7.19,4.24 10.96,5.73c3.88,1.55 7.88,2.67 11.91,3.35c3.32,0.57 6.67,0.85 10,0.85c4.72,0 9.4,-0.59 13.97,-1.68l3.03,9.69l14.67,-20.44l-23.16,-6.69l2.94,9.41z" fill="black" id="svg_11"/>
    <path d="m470.46,285.74c4.74,4.95 8.49,10.84 10.9,17.35c1.21,3.27 2.1,6.7 2.6,10.23c0.35,2.39 0.53,4.81 0.53,7.27c0,1.1 -0.04,2.19 -0.11,3.31l8.43,0.54c0.08,-1.29 0.13,-2.57 0.13,-3.85c0,-2.87 -0.22,-5.7 -0.61,-8.46c-0.6,-4.14 -1.63,-8.14 -3.05,-11.95c-2.88,-7.77 -7.39,-14.76 -13.09,-20.63l7.19,-7.76l-25.12,-2.42l5.76,23.32l6.44,-6.95z" fill="black" id="svg_15"/>
   </g>
   <defs>
    <clipPath id="svg_12">
     <rect fill="white" height="239" id="svg_16" transform="translate(280 208)" width="240"/>
    </clipPath>
   </defs>
  </symbol>
 </defs>
 <g class="layer">
  <title>Layer 1</title>
  <use id="svg_14" transform="matrix(0.996004 0 0 0.99753 1.43148 1.32136)" x="0" xlink:href="#svg_13" y="0"/>
 </g>
</svg>