<svg width="800" height="800" viewBox="0 0 800 800" fill="none" xmlns="http://www.w3.org/2000/svg">
<path d="M400 144.444C259.086 144.444 144.444 259.086 144.444 400C144.444 540.914 259.086 655.556 400 655.556C540.914 655.556 655.556 540.913 655.556 400C655.557 259.086 540.914 144.444 400 144.444Z" fill="#FCEA2B"/>
<path d="M400 655.556C541.139 655.556 655.556 541.139 655.556 400C655.556 258.861 541.139 144.444 400 144.444C258.861 144.444 144.444 258.861 144.444 400C144.444 541.139 258.861 655.556 400 655.556Z" stroke="black" stroke-width="22.2222" stroke-linecap="round" stroke-linejoin="round"/>
<path d="M256.342 308.258C260.933 304.436 281.293 288.352 310.888 290.076C334.897 291.474 350.999 303.779 356.342 308.258" stroke="black" stroke-width="22.2222" stroke-miterlimit="10" stroke-linecap="round" stroke-linejoin="round"/>
<path d="M443.658 319.369C448.249 315.546 468.609 299.463 498.203 301.186C522.212 302.585 538.314 314.89 543.658 319.369" stroke="black" stroke-width="22.2222" stroke-miterlimit="10" stroke-linecap="round" stroke-linejoin="round"/>
<path d="M333.333 388.889C333.333 407.298 318.391 422.222 300 422.222C281.608 422.222 266.667 407.297 266.667 388.889C266.667 370.498 281.608 355.556 300 355.556C318.391 355.556 333.333 370.498 333.333 388.889Z" fill="black"/>
<path d="M533.333 388.889C533.333 407.298 518.392 422.222 500 422.222C481.608 422.222 466.667 407.297 466.667 388.889C466.667 370.498 481.608 355.556 500 355.556C518.392 355.556 533.333 370.498 533.333 388.889Z" fill="black"/>
<path d="M476.311 511.734C425.198 527.473 367.107 528.065 323.69 511.734" stroke="black" stroke-width="22.2222" stroke-linecap="round" stroke-linejoin="round"/>
</svg>
