<?xml version="1.0"?>
<svg width="800" height="800" xmlns="http://www.w3.org/2000/svg" xmlns:svg="http://www.w3.org/2000/svg">
 <defs>
  <clipPath id="clip0_0_1">
   <rect fill="white" height="800" id="svg_1" width="800"/>
  </clipPath>
  <clipPath id="clip1_0_1">
   <rect fill="white" height="198" id="svg_2" transform="translate(294 248)" width="198"/>
  </clipPath>
 </defs>
 <g class="layer">
  <title>Layer 1</title>
  <rect fill="none" height="800" id="svg_3" width="800"/>
  <g clip-path="url(#clip0_0_1)" id="svg_4">
   <path d="m800,232.55c0,27.41 -15,51.31 -37.25,63.93c-10.68,6.09 -23.05,9.55 -36.23,9.55l-202.72,0l0,-88.73l260.96,0c4.2,0 8.01,1.71 10.78,4.46c2.75,2.77 4.46,6.58 4.46,10.79z" fill="#B6DCFF" id="svg_5" stroke="black" stroke-width="1.56"/>
   <path d="m762.85,292.23c0,1.42 -0.03,2.84 -0.1,4.25c-10.69,6.09 -23.05,9.55 -36.23,9.55l-202.72,0l0,-51.57l201.27,0c20.83,0 37.78,16.94 37.78,37.77z" fill="#8ECBFD" id="svg_6" stroke="black" stroke-width="1.56"/>
   <path d="m740.31,292.23c0,27.41 -15,51.3 -37.24,63.92c-10.69,6.09 -23.05,9.55 -36.24,9.55l-143.03,0l0,-88.71l201.27,0c4.2,0 8.02,1.71 10.79,4.46c2.75,2.77 4.45,6.58 4.45,10.78z" fill="#DAEDFF" id="svg_7" stroke="black" stroke-width="1.56"/>
   <path d="m703.16,351.92c0,1.42 -0.03,2.83 -0.09,4.23c-10.69,6.09 -23.05,9.55 -36.24,9.55l-143.03,0l0,-51.56l141.58,0c20.83,0 37.78,16.95 37.78,37.78z" fill="#B6DCFF" id="svg_8" stroke="black" stroke-width="1.56"/>
   <path d="m665.38,336.67l-141.58,0l0,88.72l83.35,0c40.58,0 73.48,-32.89 73.48,-73.47c0,-8.42 -6.83,-15.25 -15.25,-15.25z" fill="#DAEDFF" id="svg_9" stroke="black" stroke-width="1.56"/>
   <path d="m276.2,217.3l0,88.73l-202.72,0c-13.18,0 -25.54,-3.46 -36.23,-9.55c-22.25,-12.62 -37.25,-36.52 -37.25,-63.93c0,-4.21 1.71,-8.02 4.46,-10.79c2.77,-2.75 6.58,-4.46 10.78,-4.46l260.96,0z" fill="#B6DCFF" id="svg_10" stroke="black" stroke-width="1.56"/>
   <path d="m276.2,254.46l0,51.57l-202.72,0c-13.18,0 -25.54,-3.46 -36.23,-9.55c-0.07,-1.41 -0.1,-2.83 -0.1,-4.25c0,-20.83 16.95,-37.77 37.78,-37.77l201.27,0z" fill="#8ECBFD" id="svg_11" stroke="black" stroke-width="1.56"/>
   <path d="m276.2,276.99l0,88.71l-143.03,0c-13.19,0 -25.55,-3.46 -36.24,-9.55c-22.24,-12.62 -37.24,-36.51 -37.24,-63.92c0,-4.2 1.7,-8.01 4.46,-10.78c2.76,-2.76 6.58,-4.46 10.78,-4.46l201.27,0l0,0z" fill="#DAEDFF" id="svg_12" stroke="black" stroke-width="1.56"/>
   <path d="m276.2,314.14l0,51.56l-143.03,0c-13.19,0 -25.55,-3.46 -36.24,-9.55c-0.06,-1.4 -0.09,-2.81 -0.09,-4.23c0,-20.83 16.95,-37.78 37.78,-37.78l141.58,0z" fill="#B6DCFF" id="svg_13" stroke="black" stroke-width="1.56"/>
   <path d="m134.62,336.67l141.58,0l0,88.72l-83.35,0c-40.58,0 -73.48,-32.89 -73.48,-73.47c0,-8.42 6.83,-15.25 15.25,-15.25z" fill="#DAEDFF" id="svg_14" stroke="black" stroke-width="1.56"/>
   <path d="m399.88,557.77c120.34,0 217.89,-97.55 217.89,-217.89c0,-120.33 -97.55,-217.88 -217.89,-217.88c-120.33,0 -217.88,97.55 -217.88,217.88c0,120.34 97.55,217.89 217.88,217.89z" fill="#FFB54E" id="svg_15" stroke="black" stroke-width="1.56"/>
   <path d="m400.37,533.12c102.54,0 185.67,-83.13 185.67,-185.68c0,-102.55 -83.13,-185.68 -185.67,-185.68c-102.55,0 -185.68,83.13 -185.68,185.68c0,102.55 83.13,185.68 185.68,185.68z" fill="#FF9A1B" id="svg_16" stroke="black" stroke-width="1.56"/>
   <path d="m400,509.37c89.43,0 161.93,-72.5 161.93,-161.93c0,-89.43 -72.5,-161.93 -161.93,-161.93c-89.43,0 -161.93,72.5 -161.93,161.93c0,89.43 72.5,161.93 161.93,161.93z" fill="#FFCE8B" id="svg_17" stroke="black" stroke-width="1.56"/>
   <path d="m562.3,347.44c0,89.43 -72.51,161.94 -161.93,161.94c-4.97,0 -9.89,-0.23 -14.75,-0.67c82.51,-7.45 147.17,-76.82 147.17,-161.27c0,-84.46 -64.66,-153.81 -147.17,-161.26c4.86,-0.44 9.78,-0.66 14.75,-0.66c89.42,0 161.93,72.49 161.93,161.92z" fill="#FFB54E" id="svg_18" stroke="black" stroke-width="1.56"/>
   <path d="m767.48,612.43l27.06,30.92c9.24,10.56 1.74,27.09 -12.3,27.09l-187.51,0c-9.02,0 -16.34,-7.31 -16.34,-16.34l0,-103.33l205.24,0c13.81,0 21.39,16.06 12.61,26.72l-28.76,34.94z" fill="#E84649" id="svg_19" stroke="black" stroke-width="1.56"/>
   <path d="m675.53,550.77l0,26.68c0,21.61 -17.57,39.21 -39.21,39.21l-57.93,0l0,-65.89l97.14,0l0,0z" fill="#D73337" id="svg_20" stroke="black" stroke-width="1.56"/>
   <path d="m221.61,550.77l0,103.34c0,9.02 -7.32,16.33 -16.34,16.33l-187.51,0c-14.04,0 -21.54,-16.53 -12.3,-27.09l27.06,-30.92l-28.76,-34.94c-8.78,-10.66 -1.2,-26.72 12.61,-26.72l205.24,0z" fill="#E84649" id="svg_21" stroke="black" stroke-width="1.56"/>
   <path d="m124.47,550.77l97.14,0l0,65.89l-57.93,0c-21.64,0 -39.21,-17.6 -39.21,-39.21l0,-26.68z" fill="#D73337" id="svg_22" stroke="black" stroke-width="1.56"/>
   <path d="m636.33,593.79l-472.66,0c-9.02,0 -16.34,-7.32 -16.34,-16.34l0,-70.81c0,-9.03 7.32,-16.34 16.34,-16.34l472.66,0c9.03,0 16.34,7.31 16.34,16.34l0,70.81c0,9.02 -7.31,16.34 -16.34,16.34z" fill="#ED6264" id="svg_23" stroke="black" stroke-width="1.56"/>
   <path d="m652.66,506.64l0,70.81c0,9.02 -7.3,16.34 -16.34,16.34l-38.34,0c9.03,0 16.34,-7.32 16.34,-16.34l0,-70.81c0,-9.03 -7.31,-16.34 -16.34,-16.34l38.34,0c9.04,0 16.34,7.31 16.34,16.34z" fill="#E84649" id="svg_24" stroke="black" stroke-width="1.56"/>
   <path d="m175.39,546.52l-0.25,0l0.25,0l3.39,-14.02l2.76,-10.3l8,0l2.88,44.8l-8.39,0l-1.21,-24.45l-0.32,0l-4.61,18.05l-5.25,0l-4.61,-18.05l-0.32,0l-1.21,24.45l-8.39,0l2.88,-44.8l8,0l2.75,10.3l3.4,14.02l0.25,0zm37.29,5.7l-6.85,0c-0.9,1.11 -1.35,2.49 -1.35,4.16c0,1.66 0.47,2.96 1.41,3.9l6.79,0l0,-8.06zm-13.76,-17.92l15.87,0c2.56,1.53 4.24,3.3 5.05,5.31c0.82,1.96 1.22,4.65 1.22,8.06l0,9.6c0,3.54 0.09,6.79 0.26,9.73l-7.3,0l-1.15,-2.3c-1.67,1.53 -4.01,2.3 -7.04,2.3l-4.03,0c-3.63,-2.39 -5.44,-5.82 -5.44,-10.3c0,-4.53 1.85,-8.09 5.56,-10.69l6.02,0c1.66,0 3.22,0.51 4.67,1.53l0,-3.2c0,-1.66 -0.72,-2.77 -2.17,-3.32l-11.52,0l0,-6.72zm42.43,6.72l-4.8,0c-0.64,0.76 -1.17,1.83 -1.6,3.2c-0.39,1.36 -0.58,2.68 -0.58,3.96l9.16,0c0.08,-1.28 -0.09,-2.6 -0.52,-3.96c-0.42,-1.41 -0.98,-2.48 -1.66,-3.2zm8.7,19.26l0,6.72l-16.25,0c-2.99,-2 -5.1,-4.48 -6.34,-7.42c-1.19,-2.99 -1.79,-6 -1.79,-9.03c0,-7 2.64,-12.41 7.93,-16.25l10.37,0c2.86,2.09 4.8,4.31 5.83,6.65c1.02,2.35 1.53,4.72 1.53,7.11c0,2.39 -0.19,4.43 -0.57,6.14l-15.94,0c0.13,0.98 0.49,2.11 1.09,3.39c0.64,1.24 1.32,2.14 2.05,2.69l12.09,0zm7.78,-25.98l14.14,0l0,6.72l-9.98,0l6.08,9.02c2.73,3.88 4.24,6.55 4.54,8c0.17,0.68 0.26,1.39 0.26,2.11c0,3.03 -1.13,5.31 -3.39,6.85l-16.32,0l0,-6.72l11.71,0l-6.85,-10.05c-0.3,-0.47 -0.77,-1.13 -1.41,-1.98c-0.6,-0.86 -1.07,-1.54 -1.41,-2.05c-0.34,-0.56 -0.57,-0.96 -0.7,-1.22c-0.13,-0.25 -0.3,-0.57 -0.51,-0.96c-0.22,-0.42 -0.37,-0.78 -0.45,-1.08c-0.17,-0.81 -0.26,-1.48 -0.26,-1.99c0,-3.11 1.52,-5.33 4.55,-6.65zm21.09,18.43l0,-11.71l-4.41,0l0,-6.72l4.41,0l0,-8.9l8.51,0l0,8.9l5.25,0l0,6.72l-5.25,0l0,13.76c0,2.6 0.45,4.43 1.35,5.5l3.9,0l0,6.72l-9.09,0c-2.26,-2.09 -3.62,-4.35 -4.09,-6.78c-0.39,-2.05 -0.58,-4.55 -0.58,-7.49zm18.08,14.27l0,-32.7l6.08,0l1.6,3.45c1.71,-2.3 3.87,-3.45 6.47,-3.45l2.49,0l0,8.57l-8.12,0l0,24.13l-8.52,0zm38.58,0l-13.95,0c-4.27,-3.97 -6.4,-9.39 -6.4,-16.26c0,-3.45 0.47,-6.46 1.41,-9.02c0.98,-2.56 2.52,-5.04 4.61,-7.42l14.97,0c2.22,2.56 3.74,5.05 4.55,7.48c0.81,2.39 1.21,5.38 1.21,8.96c0,6.87 -2.13,12.29 -6.4,16.26zm-9.4,-6.72l4.86,0c1.53,-2.99 2.3,-6.38 2.3,-10.18c0,-3.79 -0.79,-6.82 -2.36,-9.08l-4.8,0c-1.54,2.17 -2.31,5.26 -2.31,9.28c0,3.96 0.77,7.29 2.31,9.98zm55.4,6.72l-6.46,0l-1.15,-2.3c-0.94,0.85 -1.84,1.45 -2.69,1.79c-0.81,0.34 -2.05,0.51 -3.71,0.51l-5.57,0c-1.88,-1.79 -3.37,-4.14 -4.48,-7.04c-1.07,-2.9 -1.6,-6.14 -1.6,-9.73c0,-3.62 0.53,-6.7 1.6,-9.21c1.11,-2.52 2.67,-4.76 4.67,-6.72l5.5,0c2.27,0 4.06,0.59 5.38,1.79l0,-13.89l8.51,0l0,44.8zm-8.51,-25.98l-6.14,0c-1.58,2.68 -2.37,5.99 -2.37,9.92c0,3.88 0.77,6.99 2.3,9.34l6.21,0l0,-19.26zm28.78,0l-4.8,0c-0.64,0.76 -1.17,1.83 -1.6,3.2c-0.39,1.36 -0.58,2.68 -0.58,3.96l9.15,0c0.09,-1.28 -0.08,-2.6 -0.51,-3.96c-0.42,-1.41 -0.98,-2.48 -1.66,-3.2zm8.7,19.26l0,6.72l-16.25,0c-2.99,-2 -5.1,-4.48 -6.34,-7.42c-1.19,-2.99 -1.79,-6 -1.79,-9.03c0,-7 2.64,-12.41 7.94,-16.25l10.36,0c2.86,2.09 4.8,4.31 5.83,6.65c1.02,2.35 1.53,4.72 1.53,7.11c0,2.39 -0.19,4.43 -0.57,6.14l-15.94,0c0.13,0.98 0.49,2.11 1.09,3.39c0.64,1.24 1.32,2.14 2.05,2.69l12.09,0zm14.02,-38.08l0,44.8l-8.44,0l0,-44.8l8.44,0zm24.77,37.38l5.76,0c1.19,-1.5 2.13,-3.67 2.82,-6.53c0.72,-2.86 1.08,-5.7 1.08,-8.51c0,-6.7 -1.26,-11.59 -3.77,-14.66l-5.89,0l0,29.7zm-8.71,7.42l0,-44.8l18.56,0c6.06,5.38 9.09,12.67 9.09,21.89c0,9.17 -2.84,16.81 -8.51,22.91l-19.14,0zm47.09,-25.98l-4.8,0c-0.64,0.76 -1.17,1.83 -1.6,3.2c-0.38,1.36 -0.57,2.68 -0.57,3.96l9.15,0c0.09,-1.28 -0.09,-2.6 -0.51,-3.96c-0.43,-1.41 -0.98,-2.48 -1.67,-3.2zm8.71,19.26l0,6.72l-16.26,0c-2.98,-2 -5.1,-4.48 -6.33,-7.42c-1.2,-2.99 -1.8,-6 -1.8,-9.03c0,-7 2.65,-12.41 7.94,-16.25l10.37,0c2.86,2.09 4.8,4.31 5.82,6.65c1.03,2.35 1.54,4.72 1.54,7.11c0,2.39 -0.19,4.43 -0.58,6.14l-15.93,0c0.12,0.98 0.49,2.11 1.08,3.39c0.64,1.24 1.33,2.14 2.05,2.69l12.1,0zm6.87,-7.55l0,-11.71l-4.42,0l0,-6.72l4.42,0l0,-8.9l8.51,0l0,8.9l5.25,0l0,6.72l-5.25,0l0,13.76c0,2.6 0.45,4.43 1.34,5.5l3.91,0l0,6.72l-9.09,0c-2.26,-2.09 -3.63,-4.35 -4.1,-6.78c-0.38,-2.05 -0.57,-4.55 -0.57,-7.49zm33.13,-0.51l-6.85,0c-0.9,1.11 -1.35,2.49 -1.35,4.16c0,1.66 0.47,2.96 1.41,3.9l6.79,0l0,-8.06zm-13.76,-17.92l15.87,0c2.56,1.53 4.24,3.3 5.05,5.31c0.81,1.96 1.22,4.65 1.22,8.06l0,9.6c0,3.54 0.08,6.79 0.26,9.73l-7.3,0l-1.15,-2.3c-1.67,1.53 -4.01,2.3 -7.04,2.3l-4.03,0c-3.63,-2.39 -5.44,-5.82 -5.44,-10.3c0,-4.53 1.85,-8.09 5.56,-10.69l6.02,0c1.66,0 3.22,0.51 4.67,1.53l0,-3.2c0,-1.66 -0.72,-2.77 -2.17,-3.32l-11.52,0l0,-6.72zm36.09,-12.1l0,44.8l-8.44,0l0,-44.8l8.44,0zm13.94,0l0,44.8l-8.45,0l0,-44.8l8.45,0zm20.27,18.82l-4.8,0c-0.64,0.76 -1.17,1.83 -1.6,3.2c-0.38,1.36 -0.57,2.68 -0.57,3.96l9.15,0c0.09,-1.28 -0.09,-2.6 -0.51,-3.96c-0.43,-1.41 -0.98,-2.48 -1.67,-3.2zm8.71,19.26l0,6.72l-16.26,0c-2.99,-2 -5.1,-4.48 -6.33,-7.42c-1.2,-2.99 -1.8,-6 -1.8,-9.03c0,-7 2.65,-12.41 7.94,-16.25l10.37,0c2.86,2.09 4.8,4.31 5.82,6.65c1.03,2.35 1.54,4.72 1.54,7.11c0,2.39 -0.19,4.43 -0.58,6.14l-15.93,0c0.12,0.98 0.49,2.11 1.08,3.39c0.64,1.24 1.33,2.14 2.05,2.69l12.1,0z" fill="white" id="svg_25"/>
   <g clip-path="url(#clip1_0_1)" id="svg_26">
    <path d="m486.67,411.9l-44.79,-44.79l-4.39,4.4l-7.59,-7.61c8.46,-12.52 12.72,-27.07 12.71,-41.59c0.01,-19.02 -7.25,-38.08 -21.75,-52.58c-14.47,-14.49 -33.54,-21.74 -52.57,-21.73c-19,-0.01 -38.07,7.25 -52.55,21.73c-14.48,14.5 -21.75,33.54 -21.74,52.57c-0.01,19.02 7.26,38.08 21.73,52.56c14.5,14.5 33.56,21.75 52.57,21.75c14.52,0 29.08,-4.26 41.6,-12.7l7.6,7.59l-4.38,4.37l44.79,44.79c3.52,3.55 8.22,5.34 12.86,5.34c4.63,0 9.33,-1.79 12.86,-5.34l3.04,-3.03c3.53,-3.53 5.32,-8.23 5.33,-12.87c0,-4.63 -1.8,-9.32 -5.33,-12.86zm-118.37,-25.28c-16.5,0 -32.96,-6.26 -45.51,-18.82c-12.55,-12.55 -18.81,-29 -18.81,-45.5c0,-16.5 6.27,-32.96 18.82,-45.5c12.55,-12.55 29,-18.82 45.49,-18.82c16.51,0 32.97,6.26 45.51,18.82c12.56,12.54 18.82,29 18.83,45.5c-0.01,16.5 -6.27,32.95 -18.82,45.5c-12.55,12.56 -29.01,18.82 -45.51,18.82zm48.27,-7.82c1.46,-1.25 2.91,-2.54 4.31,-3.93c1.38,-1.38 2.67,-2.83 3.93,-4.3l6.81,6.81l-8.23,8.24l-6.82,-6.82zm63.03,51.77l-3.02,3.03c-1.62,1.61 -3.69,2.39 -5.81,2.41c-2.12,0 -4.19,-0.8 -5.81,-2.4l-37.72,-37.73l14.64,-14.64l37.72,37.72c1.62,1.63 2.4,3.69 2.4,5.8c0,2.12 -0.79,4.2 -2.4,5.81z" fill="#FFA730" id="svg_27"/>
    <path d="m401.3,289.29c-9.09,-9.09 -21.06,-13.65 -33,-13.64c-11.93,0 -23.91,4.55 -33.01,13.64c-9.09,9.09 -13.65,21.08 -13.64,33.01c-0.01,11.93 4.55,23.92 13.64,32.99c9.1,9.1 21.08,13.66 33,13.66c11.94,0 23.91,-4.56 33.01,-13.65c9.1,-9.1 13.65,-21.07 13.65,-33c0.01,-11.93 -4.55,-23.9 -13.65,-33.01zm-5.88,60.12c-7.48,7.48 -17.28,11.22 -27.13,11.21c-9.83,0 -19.63,-3.73 -27.11,-11.21c-7.48,-7.47 -11.2,-17.27 -11.2,-27.11c0,-9.84 3.72,-19.64 11.2,-27.12c7.49,-7.48 17.28,-11.21 27.12,-11.22c9.84,0.01 19.64,3.75 27.12,11.22c7.47,7.48 11.2,17.28 11.21,27.12c0,9.84 -3.73,19.64 -11.21,27.11z" fill="#FFA730" id="svg_28"/>
   </g>
  </g>
 </g>
</svg>